<svg width="20" height="21" viewBox="0 0 20 21" fill="none" xmlns="http://www.w3.org/2000/svg">
<path d="M17.8125 14.875H10.1587C10.3831 14.4881 10.555 14.0688 10.6687 13.625H17.8125C18.1581 13.625 18.4375 13.9044 18.4375 14.25C18.4375 14.595 18.1581 14.875 17.8125 14.875ZM17.8125 13H10.79C10.8156 12.795 10.8331 12.5869 10.8331 12.375C10.8331 12.1625 10.8156 11.955 10.79 11.75H17.8125C18.1581 11.75 18.4375 12.0294 18.4375 12.375C18.4375 12.72 18.1581 13 17.8125 13ZM17.8125 11.125H10.6687C10.5544 10.6813 10.3831 10.2619 10.1587 9.875H17.8125C18.1581 9.875 18.4375 10.1544 18.4375 10.5C18.4375 10.845 18.1581 11.125 17.8125 11.125ZM17.8125 9.25H9.7325C9.32625 8.74312 8.82438 8.31687 8.25187 8H17.8125C18.1581 8 18.4375 8.27938 18.4375 8.625C18.4375 8.97 18.1581 9.25 17.8125 9.25ZM17.8125 7.375H7.8125C7.46688 7.375 7.1875 7.095 7.1875 6.75C7.1875 6.40438 7.46688 6.125 7.8125 6.125H17.8125C18.1581 6.125 18.4375 6.40438 18.4375 6.75C18.4375 7.095 18.1581 7.375 17.8125 7.375ZM17.8125 5.5H7.8125C7.46688 5.5 7.1875 5.22 7.1875 4.875C7.1875 4.52938 7.46688 4.25 7.8125 4.25H17.8125C18.1581 4.25 18.4375 4.52938 18.4375 4.875C18.4375 5.22 18.1581 5.5 17.8125 5.5ZM10.3125 12.375C10.3125 14.7913 8.35313 16.75 5.9375 16.75C3.52188 16.75 1.5625 14.7913 1.5625 12.375C1.5625 9.95875 3.52125 8 5.9375 8C8.35313 8 10.3125 9.95875 10.3125 12.375ZM7.48625 12.8506C7.42312 12.7013 7.34187 12.5712 7.24 12.4606C7.13812 12.35 7.0225 12.255 6.8925 12.1756C6.7625 12.0963 6.63 12.0256 6.49437 11.9625C6.35875 11.9 6.22625 11.8412 6.09625 11.785C5.96625 11.7294 5.84937 11.6694 5.74687 11.6056C5.64437 11.5419 5.56187 11.4688 5.50062 11.3869C5.43937 11.305 5.40875 11.2081 5.40875 11.0956C5.40875 11.0206 5.4225 10.9494 5.44937 10.8819C5.47687 10.815 5.51812 10.7569 5.57437 10.7087C5.63 10.6612 5.7 10.6231 5.78312 10.5962C5.86625 10.5687 5.96438 10.5556 6.07625 10.5556C6.21938 10.5556 6.35063 10.5725 6.47062 10.6075C6.59 10.6431 6.69563 10.6812 6.78688 10.7244C6.87813 10.7669 6.955 10.8063 7.0175 10.8425C7.08 10.8788 7.12562 10.8963 7.15437 10.8963C7.18312 10.8963 7.20563 10.8888 7.2225 10.8731C7.23875 10.8575 7.2525 10.8331 7.26125 10.7988C7.27063 10.765 7.27625 10.7219 7.28063 10.67C7.28438 10.6175 7.28625 10.5531 7.28625 10.4775C7.28625 10.41 7.285 10.3531 7.2825 10.3081C7.28 10.2631 7.275 10.2244 7.26937 10.1944C7.2625 10.1644 7.255 10.14 7.24625 10.1219C7.23625 10.1038 7.21937 10.0819 7.19312 10.0563C7.16687 10.0306 7.11375 9.9975 7.03312 9.95938C6.9525 9.92063 6.86 9.88563 6.75625 9.855C6.65188 9.82375 6.54 9.79938 6.42062 9.78125C6.39625 9.7775 6.37125 9.77875 6.34687 9.77562V9.12937H5.73187V9.77562C5.61875 9.79062 5.50938 9.81312 5.40313 9.84375C5.19625 9.90375 5.01688 9.99375 4.86438 10.115C4.71187 10.2362 4.59063 10.3888 4.50125 10.5712C4.41125 10.755 4.36687 10.9675 4.36687 11.2094C4.36687 11.42 4.39813 11.6013 4.46 11.7519C4.52188 11.9025 4.60375 12.0338 4.70438 12.1444C4.805 12.255 4.91812 12.3494 5.04562 12.4288C5.17313 12.5087 5.305 12.5794 5.44 12.6419C5.575 12.7044 5.70687 12.7631 5.83437 12.8194C5.96187 12.8756 6.07562 12.9356 6.17562 12.9987C6.27625 13.0631 6.3575 13.1356 6.42 13.2175C6.4825 13.3 6.51375 13.3981 6.51375 13.5125C6.51375 13.6119 6.49563 13.7019 6.45937 13.7831C6.42312 13.8644 6.37 13.9312 6.30125 13.9862C6.2325 14.0412 6.14875 14.0831 6.05 14.1131C5.95063 14.1431 5.83938 14.1581 5.71375 14.1581C5.52375 14.1581 5.35625 14.1369 5.21187 14.0938C5.0675 14.0506 4.94313 14.0031 4.83875 13.9506C4.73438 13.8988 4.64938 13.8519 4.58313 13.8081C4.51688 13.7656 4.46563 13.7438 4.42875 13.7438C4.4025 13.7438 4.37938 13.7513 4.36063 13.765C4.34063 13.7794 4.325 13.8038 4.31375 13.8375C4.30187 13.8719 4.29375 13.9156 4.28813 13.9706C4.2825 14.0256 4.28 14.0931 4.28 14.1737C4.28 14.2937 4.2875 14.3856 4.30125 14.4494C4.31562 14.5138 4.34 14.5625 4.37375 14.5956C4.4075 14.6287 4.4625 14.6675 4.53938 14.7119C4.61625 14.7563 4.71187 14.7975 4.82625 14.8375C4.94063 14.8769 5.07312 14.9113 5.2225 14.94C5.37188 14.9681 5.53437 14.9819 5.70875 14.9819C5.71625 14.9819 5.72312 14.9806 5.73125 14.9806V15.5825H6.34562V14.9C6.375 14.8925 6.40625 14.8888 6.435 14.8806C6.66125 14.8131 6.85938 14.7119 7.02875 14.5781C7.19813 14.4444 7.33188 14.2775 7.43125 14.0769C7.53 13.8762 7.57875 13.6438 7.57875 13.3781C7.57938 13.1762 7.54812 13.0006 7.48625 12.8506ZM9.7325 15.5H17.8125C18.1581 15.5 18.4375 15.7794 18.4375 16.125C18.4375 16.47 18.1581 16.75 17.8125 16.75H8.25187C8.82438 16.4331 9.32625 16.0069 9.7325 15.5Z" fill="#04363D"/>
</svg>
