<svg width="22" height="19" viewBox="0 0 22 19" fill="none" xmlns="http://www.w3.org/2000/svg">
<path d="M12 2.5C12 3.60457 9.5376 4.5 6.5 4.5C3.46243 4.5 1 3.60457 1 2.5M12 2.5C12 1.39543 9.5376 0.5 6.5 0.5C3.46243 0.5 1 1.39543 1 2.5M12 2.5V6.95715C10.7785 7.32398 10 7.8789 10 8.5M1 2.5V14.5C1 15.6046 3.46243 16.5 6.5 16.5C7.82963 16.5 9.0491 16.3284 10 16.0429V8.5M10 8.5C10 9.6046 12.4624 10.5 15.5 10.5C18.5376 10.5 21 9.6046 21 8.5M10 8.5C10 7.39543 12.4624 6.5 15.5 6.5C18.5376 6.5 21 7.39543 21 8.5M10 8.5V16.5C10 17.6046 12.4624 18.5 15.5 18.5C18.5376 18.5 21 17.6046 21 16.5V8.5M1 6.5C1 7.6046 3.46243 8.5 6.5 8.5C7.82963 8.5 9.0491 8.3284 10 8.0429M1 10.5C1 11.6046 3.46243 12.5 6.5 12.5C7.82963 12.5 9.0491 12.3284 10 12.0429M21 12.5C21 13.6046 18.5376 14.5 15.5 14.5C12.4624 14.5 10 13.6046 10 12.5" stroke="#04363D" stroke-linecap="round" stroke-linejoin="round"/>
</svg>
