<svg width="18" height="19" viewBox="0 0 18 19" fill="none" xmlns="http://www.w3.org/2000/svg">
<g clip-path="url(#clip0_404_1086)">
<path d="M3.8145 14.5726L6.52856 10.607L9.40083 13.3773C9.88247 13.7851 10.3606 13.4863 10.4872 13.2718L15.2543 6.44097L15.4266 8.72613C15.4547 9.1023 15.7711 9.39058 16.1403 9.39058C16.5622 9.39058 16.8856 9.01441 16.8575 8.61714L16.5551 4.59878C16.5235 4.20503 16.1825 3.9062 15.7852 3.93785L11.7668 4.24019C11.3731 4.26831 11.0743 4.61285 11.1059 5.01011C11.134 5.40386 11.4786 5.69917 11.8758 5.67105L14.161 5.49878L9.79458 11.7566L6.91528 8.98277C6.7395 8.78238 6.21216 8.60308 5.82544 9.09527L3.25903 12.8429V14.8785C3.47349 14.8679 3.68442 14.7625 3.8145 14.5726Z" fill="#04363D"/>
<path d="M16.8961 16.6789H1.82109V1.60391C1.82109 1.20664 1.50117 0.886719 1.10391 0.886719C0.706641 0.886719 0.386719 1.20664 0.386719 1.60391V17.3961C0.386719 17.7934 0.706641 18.1133 1.10391 18.1133H16.8961C17.2934 18.1133 17.6133 17.7934 17.6133 17.3961C17.6133 16.9988 17.2934 16.6789 16.8961 16.6789Z" fill="#04363D"/>
</g>
<defs>
<clipPath id="clip0_404_1086">
<rect width="18" height="18" fill="white" transform="translate(0 0.5)"/>
</clipPath>
</defs>
</svg>
