<svg width="28" height="28" viewBox="0 0 28 28" fill="none" xmlns="http://www.w3.org/2000/svg">
<g clip-path="url(#clip0_401_1246)">
<path d="M16.3333 2.33301C18.4683 2.33199 20.5391 3.06295 22.2003 4.40399C23.8616 5.74502 25.0128 7.61506 25.4621 9.70222C25.9114 11.7894 25.6315 13.9675 24.6692 15.8733C23.7069 17.7791 22.1203 19.2973 20.174 20.1748C19.5519 21.5502 18.6054 22.7542 17.4158 23.6835C16.2262 24.6128 14.829 25.2397 13.3439 25.5104C11.8588 25.7811 10.3302 25.6876 8.88926 25.2378C7.44827 24.788 6.13788 23.9955 5.07046 22.928C4.00305 21.8606 3.21047 20.5502 2.7607 19.1093C2.31093 17.6683 2.21739 16.1397 2.4881 14.6546C2.75881 13.1695 3.3857 11.7723 4.315 10.5827C5.2443 9.39307 6.44827 8.44663 7.82367 7.82451C8.5635 6.18755 9.75985 4.79876 11.2692 3.82472C12.7786 2.85067 14.5369 2.33273 16.3333 2.33301ZM11.6667 9.33301C10.7474 9.33301 9.83716 9.51407 8.98788 9.86585C8.1386 10.2176 7.36693 10.7333 6.71692 11.3833C6.06691 12.0333 5.55129 12.8049 5.19951 13.6542C4.84773 14.5035 4.66667 15.4138 4.66667 16.333C4.66667 17.2523 4.84773 18.1625 5.19951 19.0118C5.55129 19.8611 6.06691 20.6327 6.71692 21.2828C7.36693 21.9328 8.1386 22.4484 8.98788 22.8002C9.83716 23.1519 10.7474 23.333 11.6667 23.333C13.5232 23.333 15.3037 22.5955 16.6164 21.2828C17.9292 19.97 18.6667 18.1895 18.6667 16.333C18.6667 14.4765 17.9292 12.696 16.6164 11.3833C15.3037 10.0705 13.5232 9.33301 11.6667 9.33301ZM12.8333 10.4997V11.6663H15.1667V13.9997H10.5C10.3542 13.9994 10.2136 14.0537 10.1059 14.1519C9.9982 14.2501 9.93115 14.3851 9.91798 14.5303C9.90481 14.6755 9.94647 14.8203 10.0348 14.9363C10.123 15.0523 10.2516 15.131 10.395 15.157L10.5 15.1663H12.8333C13.6069 15.1663 14.3487 15.4736 14.8957 16.0206C15.4427 16.5676 15.75 17.3095 15.75 18.083C15.75 18.8566 15.4427 19.5984 14.8957 20.1454C14.3487 20.6924 13.6069 20.9997 12.8333 20.9997V22.1663H10.5V20.9997H8.16667V18.6663H12.8333C12.9791 18.6666 13.1197 18.6123 13.2274 18.5141C13.3351 18.4159 13.4022 18.2809 13.4154 18.1357C13.4285 17.9905 13.3869 17.8457 13.2986 17.7297C13.2103 17.6137 13.0818 17.535 12.9383 17.509L12.8333 17.4997H10.5C9.72645 17.4997 8.98459 17.1924 8.4376 16.6454C7.89062 16.0984 7.58333 15.3566 7.58333 14.583C7.58333 13.8095 7.89062 13.0676 8.4376 12.5206C8.98459 11.9736 9.72645 11.6663 10.5 11.6663V10.4997H12.8333ZM16.3333 4.66634C15.3448 4.66518 14.3673 4.87394 13.4655 5.2788C12.5636 5.68365 11.758 6.27538 11.102 7.01484C12.4206 6.93479 13.7413 7.13559 14.9765 7.60395C16.2118 8.07231 17.3335 8.79756 18.2676 9.73175C19.2017 10.6659 19.9268 11.7878 20.395 13.0231C20.8632 14.2584 21.0639 15.579 20.9837 16.8977C22.0444 15.9546 22.7934 14.7113 23.1313 13.3327C23.4692 11.9541 23.38 10.5054 22.8756 9.17868C22.3712 7.85196 21.4753 6.70992 20.3069 5.90404C19.1385 5.09816 17.7527 4.66651 16.3333 4.66634Z" fill="#04363D"/>
</g>
<defs>
<clipPath id="clip0_401_1246">
<rect width="28" height="28" fill="white"/>
</clipPath>
</defs>
</svg>
