<svg width="28" height="28" viewBox="0 0 28 28" fill="none" xmlns="http://www.w3.org/2000/svg">
<path d="M16.3333 12.25C16.3333 13.8608 13.7216 15.1667 10.5 15.1667C7.2783 15.1667 4.66663 13.8608 4.66663 12.25M16.3333 12.25C16.3333 10.6392 13.7216 9.33333 10.5 9.33333C7.2783 9.33333 4.66663 10.6392 4.66663 12.25M16.3333 12.25V16.9167M4.66663 12.25V16.9167M16.3333 16.9167C16.3333 18.5275 13.7216 19.8333 10.5 19.8333C7.2783 19.8333 4.66663 18.5275 4.66663 16.9167M16.3333 16.9167V21.5833C16.3333 23.1941 13.7216 24.5 10.5 24.5C7.2783 24.5 4.66663 23.1941 4.66663 21.5833V16.9167M23.3333 6.41667C23.3333 4.80584 20.7216 3.5 17.5 3.5C15.191 3.5 13.1954 4.17075 12.25 5.1438M23.3333 6.41667C23.3333 7.49624 22.1602 8.43883 20.4166 8.94313M23.3333 6.41667V16.3333C23.3333 17.197 22.1602 17.951 20.4166 18.3545M23.3333 11.6667C23.3333 12.5495 22.1077 13.3177 20.2998 13.7142" stroke="#04363D" stroke-width="2" stroke-linecap="round" stroke-linejoin="round"/>
</svg>
