<svg width="22" height="22" viewBox="0 0 22 22" fill="none" xmlns="http://www.w3.org/2000/svg">
<path fill-rule="evenodd" clip-rule="evenodd" d="M11 1.83301C9.18705 1.83301 7.41477 2.37062 5.90732 3.37787C4.39987 4.38512 3.22495 5.81675 2.53115 7.49174C1.83735 9.16673 1.65582 11.0098 2.00951 12.788C2.36321 14.5662 3.23625 16.1995 4.51823 17.4815C5.80021 18.7635 7.43356 19.6365 9.21172 19.9902C10.9899 20.3439 12.833 20.1624 14.508 19.4686C16.183 18.7748 17.6146 17.5999 18.6218 16.0924C19.6291 14.585 20.1667 12.8127 20.1667 10.9997H11V1.83301Z" stroke="#04363D" stroke-width="1.5" stroke-linecap="round" stroke-linejoin="round"/>
<path fill-rule="evenodd" clip-rule="evenodd" d="M13.75 8.24988H19.745C19.3022 6.84177 18.526 5.5614 17.4822 4.51765C16.4385 3.4739 15.1581 2.69764 13.75 2.25488V8.24988Z" stroke="#04363D" stroke-width="1.5" stroke-linecap="round" stroke-linejoin="round"/>
</svg>
