<svg width="22" height="22" viewBox="0 0 22 22" fill="none" xmlns="http://www.w3.org/2000/svg">
<path d="M2.75 8.25H19.25M6.41667 2.75V4.58333M15.5833 2.75V4.58333M5.5 11H7.33333M10.0833 11H11.9167M14.6667 11H16.5M5.5 13.75H7.33333M10.0833 13.75H11.9167M14.6667 13.75H16.5M5.5 16.5H7.33333M10.0833 16.5H11.9167M14.6667 16.5H16.5M5.68333 19.25H16.3167C17.3434 19.25 17.8569 19.25 18.249 19.0502C18.5939 18.8744 18.8744 18.5939 19.0502 18.249C19.25 17.8569 19.25 17.3434 19.25 16.3167V7.51667C19.25 6.4899 19.25 5.97652 19.0502 5.58435C18.8744 5.23938 18.5939 4.95892 18.249 4.78316C17.8569 4.58333 17.3434 4.58333 16.3167 4.58333H5.68333C4.65657 4.58333 4.14319 4.58333 3.75102 4.78316C3.40605 4.95892 3.12559 5.23938 2.94982 5.58435C2.75 5.97652 2.75 6.4899 2.75 7.51667V16.3167C2.75 17.3434 2.75 17.8569 2.94982 18.249C3.12559 18.5939 3.40605 18.8744 3.75102 19.0502C4.14319 19.25 4.65657 19.25 5.68333 19.25Z" stroke="#04363D" stroke-width="2" stroke-linecap="round"/>
</svg>
