<svg width="30" height="30" viewBox="0 0 30 30" fill="none" xmlns="http://www.w3.org/2000/svg">
<path fill-rule="evenodd" clip-rule="evenodd" d="M6.09375 12.5V20C6.09375 22.7614 8.27636 25 10.9687 25H18.2812C20.9736 25 23.1562 22.7614 23.1562 20V12.5C23.1562 9.73857 20.9736 7.5 18.2812 7.5H10.9687C8.27636 7.5 6.09375 9.73857 6.09375 12.5Z" stroke="#04363D" stroke-width="2" stroke-linecap="round" stroke-linejoin="round"/>
<path fill-rule="evenodd" clip-rule="evenodd" d="M11.3125 14.5516C10.9775 14.2081 10.8773 13.6915 11.0585 13.2425C11.2398 12.7936 11.6669 12.501 12.1406 12.501C12.6143 12.501 13.0414 12.7936 13.2227 13.2425C13.4039 13.6915 13.3038 14.2081 12.9688 14.5516C12.5114 15.0207 11.7699 15.0207 11.3125 14.5516Z" stroke="#04363D" stroke-width="2" stroke-linecap="round"/>
<path fill-rule="evenodd" clip-rule="evenodd" d="M16.2813 19.6474C15.9463 19.3038 15.8462 18.7872 16.0274 18.3383C16.2087 17.8893 16.6358 17.5967 17.1095 17.5967C17.5832 17.5967 18.0103 17.8893 18.1915 18.3383C18.3728 18.7872 18.2727 19.3038 17.9377 19.6474C17.4803 20.1164 16.7387 20.1164 16.2813 19.6474Z" stroke="#04363D" stroke-width="2" stroke-linecap="round"/>
<path d="M17.3437 8.75C17.3437 9.26776 17.7635 9.6875 18.2812 9.6875C18.799 9.6875 19.2187 9.26776 19.2187 8.75H17.3437ZM19.2187 5C19.2187 4.48224 18.799 4.0625 18.2812 4.0625C17.7635 4.0625 17.3437 4.48224 17.3437 5H19.2187ZM10.0312 8.75C10.0312 9.26776 10.451 9.6875 10.9688 9.6875C11.4865 9.6875 11.9062 9.26776 11.9062 8.75H10.0312ZM11.9062 5C11.9062 4.48224 11.4865 4.0625 10.9688 4.0625C10.451 4.0625 10.0312 4.48224 10.0312 5H11.9062ZM18.6089 13.5056C18.9704 13.1349 18.9627 12.5414 18.592 12.1799C18.2212 11.8185 17.6277 11.8261 17.2662 12.1968L18.6089 13.5056ZM10.6399 18.9944C10.2785 19.3651 10.2861 19.9586 10.6568 20.32C11.0276 20.6815 11.6211 20.6739 11.9825 20.3031L10.6399 18.9944ZM19.2187 8.75V5H17.3437V8.75H19.2187ZM11.9062 8.75V5H10.0312V8.75H11.9062ZM17.2662 12.1968L10.6399 18.9944L11.9825 20.3031L18.6089 13.5056L17.2662 12.1968Z" fill="#04363D"/>
</svg>
