<svg width="24" height="24" viewBox="0 0 24 24" fill="none" xmlns="http://www.w3.org/2000/svg">
<path d="M21.375 17.25H12.1905C12.4598 16.7858 12.666 16.2825 12.8025 15.75H21.375C21.7897 15.75 22.125 16.0852 22.125 16.5C22.125 16.914 21.7897 17.25 21.375 17.25ZM21.375 15H12.948C12.9788 14.754 12.9998 14.5042 12.9998 14.25C12.9998 13.995 12.9788 13.746 12.948 13.5H21.375C21.7897 13.5 22.125 13.8352 22.125 14.25C22.125 14.664 21.7897 15 21.375 15ZM21.375 12.75H12.8025C12.6652 12.2175 12.4598 11.7143 12.1905 11.25H21.375C21.7897 11.25 22.125 11.5852 22.125 12C22.125 12.414 21.7897 12.75 21.375 12.75ZM21.375 10.5H11.679C11.1915 9.89175 10.5892 9.38025 9.90225 9H21.375C21.7897 9 22.125 9.33525 22.125 9.75C22.125 10.164 21.7897 10.5 21.375 10.5ZM21.375 8.25H9.375C8.96025 8.25 8.625 7.914 8.625 7.5C8.625 7.08525 8.96025 6.75 9.375 6.75H21.375C21.7897 6.75 22.125 7.08525 22.125 7.5C22.125 7.914 21.7897 8.25 21.375 8.25ZM21.375 6H9.375C8.96025 6 8.625 5.664 8.625 5.25C8.625 4.83525 8.96025 4.5 9.375 4.5H21.375C21.7897 4.5 22.125 4.83525 22.125 5.25C22.125 5.664 21.7897 6 21.375 6ZM12.375 14.25C12.375 17.1495 10.0238 19.5 7.125 19.5C4.22625 19.5 1.875 17.1495 1.875 14.25C1.875 11.3505 4.2255 9 7.125 9C10.0238 9 12.375 11.3505 12.375 14.25ZM8.9835 14.8207C8.90775 14.6415 8.81025 14.4855 8.688 14.3527C8.56575 14.22 8.427 14.106 8.271 14.0107C8.115 13.9155 7.956 13.8308 7.79325 13.755C7.6305 13.68 7.4715 13.6095 7.3155 13.542C7.1595 13.4753 7.01925 13.4032 6.89625 13.3267C6.77325 13.2502 6.67425 13.1625 6.60075 13.0643C6.52725 12.966 6.4905 12.8497 6.4905 12.7147C6.4905 12.6247 6.507 12.5393 6.53925 12.4583C6.57225 12.378 6.62175 12.3082 6.68925 12.2505C6.756 12.1935 6.84 12.1477 6.93975 12.1155C7.0395 12.0825 7.15725 12.0668 7.2915 12.0668C7.46325 12.0668 7.62075 12.087 7.76475 12.129C7.908 12.1718 8.03475 12.2175 8.14425 12.2692C8.25375 12.3202 8.346 12.3675 8.421 12.411C8.496 12.4545 8.55075 12.4755 8.58525 12.4755C8.61975 12.4755 8.64675 12.4665 8.667 12.4478C8.6865 12.429 8.703 12.3998 8.7135 12.3585C8.72475 12.318 8.7315 12.2662 8.73675 12.204C8.74125 12.141 8.7435 12.0637 8.7435 11.973C8.7435 11.892 8.742 11.8238 8.739 11.7697C8.736 11.7157 8.73 11.6692 8.72325 11.6332C8.715 11.5972 8.706 11.568 8.6955 11.5463C8.6835 11.5245 8.66325 11.4983 8.63175 11.4675C8.60025 11.4367 8.5365 11.397 8.43975 11.3513C8.343 11.3047 8.232 11.2628 8.1075 11.226C7.98225 11.1885 7.848 11.1593 7.70475 11.1375C7.6755 11.133 7.6455 11.1345 7.61625 11.1307V10.3553H6.87825V11.1307C6.7425 11.1487 6.61125 11.1757 6.48375 11.2125C6.2355 11.2845 6.02025 11.3925 5.83725 11.538C5.65425 11.6835 5.50875 11.8665 5.4015 12.0855C5.2935 12.306 5.24025 12.561 5.24025 12.8512C5.24025 13.104 5.27775 13.3215 5.352 13.5023C5.42625 13.683 5.5245 13.8405 5.64525 13.9733C5.766 14.106 5.90175 14.2193 6.05475 14.3145C6.20775 14.4105 6.366 14.4952 6.528 14.5702C6.69 14.6453 6.84825 14.7158 7.00125 14.7833C7.15425 14.8507 7.29075 14.9227 7.41075 14.9985C7.5315 15.0757 7.629 15.1627 7.704 15.261C7.779 15.36 7.8165 15.4777 7.8165 15.615C7.8165 15.7343 7.79475 15.8422 7.75125 15.9398C7.70775 16.0373 7.644 16.1175 7.5615 16.1835C7.479 16.2495 7.3785 16.2998 7.26 16.3358C7.14075 16.3717 7.00725 16.3898 6.8565 16.3898C6.6285 16.3898 6.4275 16.3643 6.25425 16.3125C6.081 16.2607 5.93175 16.2037 5.8065 16.1407C5.68125 16.0785 5.57925 16.0222 5.49975 15.9697C5.42025 15.9187 5.35875 15.8925 5.3145 15.8925C5.283 15.8925 5.25525 15.9015 5.23275 15.918C5.20875 15.9353 5.19 15.9645 5.1765 16.005C5.16225 16.0463 5.1525 16.0987 5.14575 16.1647C5.139 16.2308 5.136 16.3118 5.136 16.4085C5.136 16.5525 5.145 16.6628 5.1615 16.7393C5.17875 16.8165 5.208 16.875 5.2485 16.9147C5.289 16.9545 5.355 17.001 5.44725 17.0543C5.5395 17.1075 5.65425 17.157 5.7915 17.205C5.92875 17.2523 6.08775 17.2935 6.267 17.328C6.44625 17.3617 6.64125 17.3783 6.8505 17.3783C6.8595 17.3783 6.86775 17.3768 6.8775 17.3768V18.099H7.61475V17.28C7.65 17.271 7.6875 17.2665 7.722 17.2568C7.9935 17.1758 8.23125 17.0542 8.4345 16.8937C8.63775 16.7332 8.79825 16.533 8.9175 16.2922C9.036 16.0515 9.0945 15.7725 9.0945 15.4537C9.09525 15.2115 9.05775 15.0007 8.9835 14.8207ZM11.679 18H21.375C21.7897 18 22.125 18.3352 22.125 18.75C22.125 19.164 21.7897 19.5 21.375 19.5H9.90225C10.5892 19.1198 11.1915 18.6082 11.679 18Z" fill="#04363D"/>
</svg>
