<svg viewBox="0 0 14 14" fill="none" xmlns="http://www.w3.org/2000/svg">
<path fill-rule="evenodd" clip-rule="evenodd" d="M0.67249 5.32219C2.2419 3.15332 4.52305 1.86877 7.00004 1.86877C7.88008 1.86877 8.73832 2.03138 9.5496 2.34001C9.80173 2.43591 9.92832 2.71802 9.8324 2.97011C9.73655 3.22221 9.4544 3.34884 9.20233 3.25293C8.49927 2.98548 7.75858 2.84552 7.00004 2.84552C4.87989 2.84552 2.87649 3.94233 1.46358 5.89507L1.46311 5.89572C1.24307 6.19883 1.11676 6.63309 1.11676 7.09438C1.11676 7.5556 1.24307 7.98992 1.46311 8.29297L1.46358 8.29363C1.74426 8.68159 2.0484 9.03576 2.37202 9.35417C2.56427 9.54334 2.56676 9.85257 2.37757 10.0448C2.18839 10.2371 1.87919 10.2396 1.68694 10.0504C1.32332 9.69258 0.983844 9.29687 0.672256 8.86619C0.306582 8.36219 0.140015 7.71481 0.140015 7.09438C0.140015 6.47375 0.306654 5.82624 0.67249 5.32219ZM11.4103 3.96448C11.5929 3.76603 11.9019 3.75321 12.1004 3.93587C12.545 4.34502 12.9562 4.80896 13.3278 5.32251C13.6935 5.8265 13.86 6.47388 13.86 7.09438C13.86 7.71494 13.6933 8.36245 13.3275 8.86652C11.7581 11.0354 9.477 12.32 7.00004 12.32C6.03071 12.32 5.08807 12.1227 4.20554 11.7505C3.95701 11.6457 3.8405 11.3593 3.94531 11.1108C4.05011 10.8622 4.33654 10.7457 4.58507 10.8505C5.35094 11.1735 6.16472 11.3432 7.00004 11.3432C9.12016 11.3432 11.1235 10.2464 12.5364 8.29363L12.5369 8.29297C12.757 7.98992 12.8833 7.5556 12.8833 7.09438C12.8833 6.63309 12.757 6.19883 12.5369 5.89572L12.5364 5.89507C12.2017 5.43246 11.8336 5.01783 11.4389 4.65455C11.2405 4.4719 11.2276 4.16295 11.4103 3.96448Z" fill="#04363D"/>
<path fill-rule="evenodd" clip-rule="evenodd" d="M6.99997 5.63263C6.18927 5.63263 5.53485 6.28705 5.53485 7.09775C5.53485 7.45484 5.66121 7.78023 5.87176 8.03379C6.04406 8.24132 6.01547 8.54919 5.80795 8.72149C5.60046 8.89378 5.29257 8.86526 5.12027 8.65774C4.76913 8.23481 4.55811 7.69043 4.55811 7.09775C4.55811 5.7476 5.64983 4.65588 6.99997 4.65588C7.66513 4.65588 8.26882 4.92156 8.70881 5.35231C8.90156 5.541 8.90481 5.85018 8.71611 6.04293C8.5274 6.23567 8.21823 6.23893 8.02548 6.05022C7.76124 5.79151 7.40024 5.63263 6.99997 5.63263ZM8.95346 6.60937C9.22317 6.60937 9.44183 6.82803 9.44183 7.09775C9.44183 8.44787 8.35009 9.53961 6.99997 9.53961C6.73026 9.53961 6.51159 9.32095 6.51159 9.05123C6.51159 8.78152 6.73026 8.56286 6.99997 8.56286C7.81066 8.56286 8.46508 7.90844 8.46508 7.09775C8.46508 6.82803 8.68374 6.60937 8.95346 6.60937Z" fill="#04363D"/>
<path fill-rule="evenodd" clip-rule="evenodd" d="M13.8719 0.712162C14.054 0.911158 14.0403 1.22007 13.8413 1.40215L0.818057 13.3184C0.619061 13.5005 0.31015 13.4868 0.128071 13.2878C-0.0540068 13.0888 -0.0402932 12.7799 0.158696 12.5978L13.182 0.681538C13.3809 0.49946 13.6899 0.513174 13.8719 0.712162Z" fill="#04363D"/>
</svg>
