<svg width="24" height="24" viewBox="0 0 24 24" fill="none" xmlns="http://www.w3.org/2000/svg">
<path d="M18.6082 23.829H5.39102C4.52033 23.8271 3.68584 23.4804 3.07023 22.8647C2.45463 22.249 2.10808 21.4144 2.10645 20.5437V10.7071C2.10808 9.83645 2.45463 9.00188 3.07023 8.38615C3.68584 7.77042 4.52033 7.42369 5.39102 7.42188H18.6082C19.479 7.42351 20.3136 7.77015 20.9294 8.38591C21.5451 9.00166 21.8918 9.83633 21.8934 10.7071V20.5437C21.8918 21.4145 21.5451 22.2492 20.9294 22.8649C20.3136 23.4807 19.479 23.8273 18.6082 23.829ZM5.39102 9.13616C4.97454 9.13652 4.57524 9.30218 4.28082 9.59673C3.98639 9.89129 3.82091 10.2907 3.82073 10.7071V20.5437C3.82091 20.9602 3.98639 21.3595 4.28082 21.6541C4.57524 21.9487 4.97454 22.1143 5.39102 22.1147H18.6082C19.0247 22.1143 19.4241 21.9487 19.7186 21.6541C20.0131 21.3596 20.1788 20.9602 20.1791 20.5437V10.7071C20.1788 10.2906 20.0131 9.89122 19.7186 9.59669C19.4241 9.30215 19.0247 9.13652 18.6082 9.13616H5.39102Z" fill="#04363D"/>
<path d="M17.511 9.13563C17.2837 9.13563 17.0657 9.04532 16.9049 8.88458C16.7442 8.72383 16.6539 8.50581 16.6539 8.27849V5.90248C16.6475 5.36786 16.5257 4.84093 16.2966 4.35779C16.0676 3.87466 15.7369 3.44676 15.327 3.1034C14.4051 2.30281 13.2208 1.86934 11.9999 1.88557C9.43261 1.88557 7.34393 3.68763 7.34393 5.90248V8.27849C7.34393 8.50581 7.25362 8.72383 7.09287 8.88458C6.93213 9.04532 6.71411 9.13563 6.48678 9.13563C6.25945 9.13563 6.04144 9.04532 5.88069 8.88458C5.71995 8.72383 5.62964 8.50581 5.62964 8.27849V5.90248C5.62758 2.74271 8.48564 0.171286 11.9999 0.171286C13.6396 0.153647 15.2286 0.739359 16.4646 1.817C17.0578 2.32009 17.5352 2.94546 17.8641 3.65027C18.193 4.35508 18.3656 5.12266 18.3702 5.90043V8.27643C18.3705 8.38934 18.3484 8.50118 18.3054 8.60555C18.2623 8.70992 18.199 8.80474 18.1192 8.88458C18.0393 8.96442 17.9445 9.02769 17.8401 9.07078C17.7358 9.11386 17.6239 9.1359 17.511 9.13563Z" fill="#04363D"/>
<path d="M12 17.6767C11.7726 17.6767 11.5546 17.5864 11.3939 17.4257C11.2331 17.2649 11.1428 17.0469 11.1428 16.8196V14.5368C11.1428 14.3095 11.2331 14.0915 11.3939 13.9307C11.5546 13.77 11.7726 13.6797 12 13.6797C12.2273 13.6797 12.4453 13.77 12.6061 13.9307C12.7668 14.0915 12.8571 14.3095 12.8571 14.5368V16.823C12.8562 17.0497 12.7655 17.2669 12.6048 17.4269C12.4442 17.5869 12.2267 17.6767 12 17.6767Z" fill="#04363D"/>
</svg>
