<svg width="24" height="24" viewBox="0 0 24 24" fill="none" xmlns="http://www.w3.org/2000/svg">
<path d="M2.68931 6.70475C2.52614 6.32403 2.08523 6.14766 1.70451 6.31083C1.32379 6.474 1.14742 6.91491 1.31059 7.29563L2.68931 6.70475ZM9.0414 13.7379C9.26731 13.3908 9.16899 12.9262 8.8218 12.7003C8.47461 12.4744 8.01003 12.5727 7.78412 12.9199L9.0414 13.7379ZM6.37131 15.0912C6.1454 15.4383 6.24372 15.9029 6.59091 16.1288C6.9381 16.3547 7.40268 16.2564 7.62859 15.9092L6.37131 15.0912ZM22.6894 7.29563C22.8524 6.91491 22.6762 6.474 22.2954 6.31083C21.9147 6.14766 21.4738 6.32403 21.3106 6.70475L22.6894 7.29563ZM19.9697 13.1594C20.2626 13.4523 20.7374 13.4523 21.0303 13.1594C21.3232 12.8665 21.3232 12.3916 21.0303 12.0987L19.9697 13.1594ZM11.25 16.5002C11.25 16.9144 11.5858 17.2502 12 17.2502C12.4142 17.2502 12.75 16.9144 12.75 16.5002H11.25ZM16.3714 15.9092C16.5973 16.2564 17.0619 16.3547 17.409 16.1288C17.7562 15.9029 17.8545 15.4383 17.6285 15.0912L16.3714 15.9092ZM5.53028 11.6594C5.82317 11.3665 5.82317 10.8916 5.53028 10.5987C5.23739 10.3058 4.76251 10.3058 4.46962 10.5987L5.53028 11.6594ZM2.96962 12.0987C2.67673 12.3916 2.67673 12.8665 2.96962 13.1594C3.26251 13.4523 3.73739 13.4523 4.03028 13.1594L2.96962 12.0987ZM12 13.2502C8.77606 13.2502 6.46128 11.6448 4.92455 9.98985C4.1564 9.16262 3.5932 8.33303 3.22254 7.71033C3.03764 7.39969 2.90182 7.14251 2.81335 6.96556C2.76914 6.87715 2.73684 6.80894 2.71622 6.7643C2.70592 6.74199 2.69854 6.72559 2.69406 6.71552C2.69182 6.71049 2.6901 6.70656 2.68931 6.70475C2.68929 6.70471 2.68934 6.70483 2.68931 6.70475C2.68941 6.70498 2.68931 6.70475 1.99995 7.00019C1.31059 7.29563 1.31044 7.29529 1.31059 7.29563C1.31065 7.29578 1.31109 7.29679 1.31122 7.29709C1.31147 7.29768 1.31178 7.29839 1.31213 7.29919C1.31282 7.30081 1.31371 7.30285 1.31478 7.30531C1.31693 7.31022 1.31983 7.31681 1.32348 7.32502C1.33078 7.34144 1.3411 7.36434 1.35448 7.3933C1.38122 7.45121 1.42021 7.53339 1.47171 7.63638C1.57464 7.84225 1.72789 8.13194 1.93361 8.47755C2.3442 9.16735 2.9685 10.0878 3.82535 11.0105C5.53862 12.8556 8.22384 14.7502 12 14.7502V13.2502ZM15.3125 12.631C14.3421 13.013 13.2417 13.2502 12 13.2502V14.7502C13.4382 14.7502 14.7246 14.4744 15.8619 14.0268L15.3125 12.631ZM7.78412 12.9199L6.37131 15.0912L7.62859 15.9092L9.0414 13.7379L7.78412 12.9199ZM22 7.00019C21.3106 6.70475 21.3105 6.70489 21.3106 6.70475C21.3106 6.70459 21.3111 6.70368 21.3111 6.70379C21.311 6.70399 21.3107 6.70471 21.3101 6.70595C21.309 6.70842 21.3069 6.71294 21.3041 6.71943C21.2983 6.73242 21.2889 6.75328 21.2758 6.78144C21.2495 6.83776 21.2085 6.92314 21.1525 7.03286C21.0406 7.25246 20.869 7.5685 20.6354 7.94339C20.1669 8.69535 19.4563 9.67216 18.4867 10.5822L19.5133 11.6759C20.6023 10.6537 21.3917 9.56606 21.9085 8.73665C22.1676 8.32087 22.3599 7.96699 22.4888 7.71434C22.5532 7.58794 22.6019 7.48662 22.6353 7.41526C22.6518 7.37958 22.6646 7.35137 22.6737 7.33123C22.6782 7.32116 22.6818 7.31311 22.6844 7.30715C22.6857 7.30417 22.6866 7.30172 22.6875 7.29979C22.688 7.29883 22.6883 7.298 22.6886 7.29731C22.6888 7.29696 22.6893 7.29591 22.6894 7.29563C22.6894 7.2957 22.6894 7.29549 22.6894 7.29563C22.6894 7.29546 22.6894 7.29563 22 7.00019ZM18.4867 10.5822C17.6277 11.3884 16.5739 12.1345 15.3125 12.631L15.8619 14.0268C17.3355 13.4468 18.5466 12.5832 19.5133 11.6759L18.4867 10.5822ZM18.4697 11.6594L19.9697 13.1594L21.0303 12.0987L19.5303 10.5987L18.4697 11.6594ZM11.25 14.0002V16.5002H12.75V14.0002H11.25ZM14.9586 13.7379L16.3714 15.9092L17.6285 15.0912L16.2157 12.9199L14.9586 13.7379ZM4.46962 10.5987L2.96962 12.0987L4.03028 13.1594L5.53028 11.6594L4.46962 10.5987Z" fill="#04363D"/>
<!-- <path d="M2.68931 6.70475C2.52614 6.32403 2.08523 6.14766 1.70451 6.31083C1.32379 6.474 1.14742 6.91491 1.31059 7.29563L2.68931 6.70475ZM9.0414 13.7379C9.26731 13.3908 9.16899 12.9262 8.8218 12.7003C8.47461 12.4744 8.01003 12.5727 7.78412 12.9199L9.0414 13.7379ZM6.37131 15.0912C6.1454 15.4383 6.24372 15.9029 6.59091 16.1288C6.9381 16.3547 7.40268 16.2564 7.62859 15.9092L6.37131 15.0912ZM22.6894 7.29563C22.8524 6.91491 22.6762 6.474 22.2954 6.31083C21.9147 6.14766 21.4738 6.32403 21.3106 6.70475L22.6894 7.29563ZM19.9697 13.1594C20.2626 13.4523 20.7374 13.4523 21.0303 13.1594C21.3232 12.8665 21.3232 12.3916 21.0303 12.0987L19.9697 13.1594ZM11.25 16.5002C11.25 16.9144 11.5858 17.2502 12 17.2502C12.4142 17.2502 12.75 16.9144 12.75 16.5002H11.25ZM16.3714 15.9092C16.5973 16.2564 17.0619 16.3547 17.409 16.1288C17.7562 15.9029 17.8545 15.4383 17.6285 15.0912L16.3714 15.9092ZM5.53028 11.6594C5.82317 11.3665 5.82317 10.8916 5.53028 10.5987C5.23739 10.3058 4.76251 10.3058 4.46962 10.5987L5.53028 11.6594ZM2.96962 12.0987C2.67673 12.3916 2.67673 12.8665 2.96962 13.1594C3.26251 13.4523 3.73739 13.4523 4.03028 13.1594L2.96962 12.0987ZM12 13.2502C8.77606 13.2502 6.46128 11.6448 4.92455 9.98985C4.1564 9.16262 3.5932 8.33303 3.22254 7.71033C3.03764 7.39969 2.90182 7.14251 2.81335 6.96556C2.76914 6.87715 2.73684 6.80894 2.71622 6.7643C2.70592 6.74199 2.69854 6.72559 2.69406 6.71552C2.69182 6.71049 2.6901 6.70656 2.68931 6.70475C2.68929 6.70471 2.68934 6.70483 2.68931 6.70475C2.68941 6.70498 2.68931 6.70475 1.99995 7.00019C1.31059 7.29563 1.31044 7.29529 1.31059 7.29563C1.31065 7.29578 1.31109 7.29679 1.31122 7.29709C1.31147 7.29768 1.31178 7.29839 1.31213 7.29919C1.31282 7.30081 1.31371 7.30285 1.31478 7.30531C1.31693 7.31022 1.31983 7.31681 1.32348 7.32502C1.33078 7.34144 1.3411 7.36434 1.35448 7.3933C1.38122 7.45121 1.42021 7.53339 1.47171 7.63638C1.57464 7.84225 1.72789 8.13194 1.93361 8.47755C2.3442 9.16735 2.9685 10.0878 3.82535 11.0105C5.53862 12.8556 8.22384 14.7502 12 14.7502V13.2502ZM15.3125 12.631C14.3421 13.013 13.2417 13.2502 12 13.2502V14.7502C13.4382 14.7502 14.7246 14.4744 15.8619 14.0268L15.3125 12.631ZM7.78412 12.9199L6.37131 15.0912L7.62859 15.9092L9.0414 13.7379L7.78412 12.9199ZM22 7.00019C21.3106 6.70475 21.3105 6.70489 21.3106 6.70475C21.3106 6.70459 21.3111 6.70368 21.3111 6.70379C21.311 6.70399 21.3107 6.70471 21.3101 6.70595C21.309 6.70842 21.3069 6.71294 21.3041 6.71943C21.2983 6.73242 21.2889 6.75328 21.2758 6.78144C21.2495 6.83776 21.2085 6.92314 21.1525 7.03286C21.0406 7.25246 20.869 7.5685 20.6354 7.94339C20.1669 8.69535 19.4563 9.67216 18.4867 10.5822L19.5133 11.6759C20.6023 10.6537 21.3917 9.56606 21.9085 8.73665C22.1676 8.32087 22.3599 7.96699 22.4888 7.71434C22.5532 7.58794 22.6019 7.48662 22.6353 7.41526C22.6518 7.37958 22.6646 7.35137 22.6737 7.33123C22.6782 7.32116 22.6818 7.31311 22.6844 7.30715C22.6857 7.30417 22.6866 7.30172 22.6875 7.29979C22.688 7.29883 22.6883 7.298 22.6886 7.29731C22.6888 7.29696 22.6893 7.29591 22.6894 7.29563C22.6894 7.2957 22.6894 7.29549 22.6894 7.29563C22.6894 7.29546 22.6894 7.29563 22 7.00019ZM18.4867 10.5822C17.6277 11.3884 16.5739 12.1345 15.3125 12.631L15.8619 14.0268C17.3355 13.4468 18.5466 12.5832 19.5133 11.6759L18.4867 10.5822ZM18.4697 11.6594L19.9697 13.1594L21.0303 12.0987L19.5303 10.5987L18.4697 11.6594ZM11.25 14.0002V16.5002H12.75V14.0002H11.25ZM14.9586 13.7379L16.3714 15.9092L17.6285 15.0912L16.2157 12.9199L14.9586 13.7379ZM4.46962 10.5987L2.96962 12.0987L4.03028 13.1594L5.53028 11.6594L4.46962 10.5987Z" fill="#04363D"/> -->
</svg>