<svg width="22" height="22" viewBox="0 0 22 22" fill="none" xmlns="http://www.w3.org/2000/svg">
<path d="M5.5 10.0833C5.5 7.49052 5.5 6.19417 6.30546 5.38871C7.11091 4.58325 8.40727 4.58325 11 4.58325H13.75C16.3427 4.58325 17.6391 4.58325 18.4445 5.38871C19.25 6.19417 19.25 7.49052 19.25 10.0833V14.6666C19.25 17.2593 19.25 18.5556 18.4445 19.3611C17.6391 20.1666 16.3427 20.1666 13.75 20.1666H11C8.40727 20.1666 7.11091 20.1666 6.30546 19.3611C5.5 18.5556 5.5 17.2593 5.5 14.6666V10.0833Z" stroke="#04363D"/>
<path opacity="0.5" d="M5.5 17.4166C3.98122 17.4166 2.75 16.1854 2.75 14.6666V9.16659C2.75 5.70962 2.75 3.98114 3.82394 2.90719C4.89789 1.83325 6.62636 1.83325 10.0833 1.83325H13.75C15.2688 1.83325 16.5 3.06447 16.5 4.58325" stroke="#04363D"/>
</svg>
