<svg width="140" height="35" viewBox="0 0 140 35" fill="none" xmlns="http://www.w3.org/2000/svg">
<g clip-path="url(#clip0_169_1773)">
<path d="M-86 -22H226V57H-86V-22ZM-71.5513 24.7905C-71.5513 24.746 -71.5163 24.7108 -71.4719 24.7108H-60.9162C-60.8719 24.7108 -60.8368 24.6756 -60.8368 24.6311V13.2429C-60.8368 13.1984 -60.8719 13.1632 -60.9162 13.1632H-71.4743C-71.5186 13.1632 -71.5537 13.128 -71.5537 13.0835V-7.62059C-71.5537 -7.66513 -71.5186 -7.7003 -71.4743 -7.7003H-53.2377C-53.1933 -7.7003 -53.1583 -7.73546 -53.1583 -7.78V-19.5175C-53.1583 -19.562 -53.1933 -19.5972 -53.2377 -19.5972H-84.1878C-84.2322 -19.5972 -84.2672 -19.562 -84.2672 -19.5175V55.2794C-84.2672 55.3239 -84.2322 55.3591 -84.1878 55.3591H-71.6331C-71.5887 55.3591 -71.5537 55.3239 -71.5537 55.2794L-71.5513 24.7905ZM82.6365 3.3808C82.6365 3.49567 82.5944 3.51442 82.5104 3.43941C76.24 -2.14685 67.7674 -3.51587 59.7152 -2.03902C58.4845 -1.81397 57.0086 -1.36623 56.0347 -1.01225C49.9512 1.18896 45.2081 5.07332 41.8079 10.6361C38.4871 16.07 37.0649 22.7018 37.4992 29.0312C38.6529 45.8087 53.3608 57.1524 69.7828 54.9723C72.7277 54.5831 75.5791 53.6384 78.2133 52.3139C78.2811 52.2811 78.3231 52.2131 78.3231 52.1404V39.2309C78.3231 39.1348 78.2133 39.0808 78.1386 39.1394C77.3096 39.77 76.4759 40.3631 75.6328 40.921C70.3129 44.4444 63.4961 44.6788 58.0968 41.3266C52.3543 37.7587 49.1338 31.2957 49.8601 24.4858C50.4183 19.2253 53.1903 14.3775 57.6461 11.4918C60.9272 9.36558 64.6171 8.55682 68.7202 9.06318C77.9868 10.2048 83.3651 17.7415 83.3674 26.7831C83.3698 38.8816 83.3721 47.8974 83.3698 53.8283C83.3698 53.8634 83.4001 53.8939 83.4352 53.8939H94.8339C94.9086 53.8939 94.9693 53.833 94.9693 53.7556V-18.7861C94.9693 -18.8588 94.9343 -18.8939 94.8619 -18.8939H82.7719C82.6855 -18.8939 82.6411 -18.8494 82.6411 -18.7626L82.6365 3.3808ZM111.847 31.8982C111.84 31.8794 111.854 31.8583 111.875 31.8583H154.537C154.604 31.8583 154.66 31.8091 154.672 31.7411C154.997 29.561 155.132 27.3902 155.083 25.2289C154.91 17.5633 151.977 10.6291 146.531 5.29134C141.746 0.600565 135.167 -2.16092 128.61 -2.56178C121.2 -3.0189 114.626 -0.761423 108.888 4.21065C102.354 9.86959 99.0095 18.3627 99.0585 27.0831C99.1216 37.8806 106.09 48.2444 115.765 52.7288C127.414 58.1276 140.933 54.555 148.866 44.4796C151.045 41.711 152.715 38.544 153.88 34.9785C153.892 34.9433 153.864 34.9058 153.827 34.9058H141.697C141.611 34.9058 141.543 34.9433 141.498 35.016C140.903 35.9958 140.335 37.0179 139.618 37.8783C136.496 41.622 132.433 43.5606 127.43 43.6919C120.081 43.8841 114.135 38.6378 111.847 31.8982ZM8.31228 9.00926C12.9012 8.97644 16.8946 10.4627 18.7932 14.9683C20.0753 18.0064 20.2972 21.4711 20.2972 24.8515C20.2972 34.1439 20.2949 43.7974 20.2902 53.8142C20.2902 53.8681 20.3159 53.8939 20.3696 53.8939H32.4689C32.56 53.8939 32.6044 53.8494 32.6044 53.7603C32.6067 44.5382 32.6044 35.2832 32.602 25.9978C32.602 23.3371 32.5927 21.7735 32.5717 21.3117C32.3592 16.3326 31.334 11.316 28.7838 7.18781C23.0225 -2.13279 11.054 -4.30353 1.2409 -1.23027C1.13348 -1.1951 1.07977 -1.12243 1.07977 -1.00991V10.7534C1.07977 10.8565 1.18952 10.9198 1.27827 10.8706C3.49449 9.64923 5.83916 9.02801 8.31228 9.00926ZM-40.2322 53.2469C-34.4453 55.7177 -27.6681 55.8537 -21.7598 53.9385C-21.6664 53.9103 -21.6033 53.8236 -21.6033 53.7251L-21.601 41.9267C-21.601 41.8353 -21.699 41.779 -21.7784 41.8236C-24.9475 43.6145 -28.4552 44.1396 -32.3038 43.3965C-39.4709 42.0134 -40.8137 34.9714 -40.8114 28.8272C-40.8114 19.2488 -40.8114 9.26478 -40.8114 -1.12712C-40.8114 -1.16463 -40.8417 -1.1951 -40.8768 -1.1951H-53.0135C-53.1116 -1.1951 -53.1606 -1.14588 -53.1606 -1.04742C-53.1629 8.98582 -53.1629 18.8737 -53.1629 28.6139C-53.1629 29.915 -53.0952 31.4856 -52.9574 33.3211C-52.7075 36.6429 -51.9649 39.7677 -50.7248 42.698C-48.6371 47.6349 -45.1387 51.1512 -40.2322 53.2469ZM-3.99491 -1.10602C-3.99491 -1.15525 -4.03461 -1.1951 -4.08366 -1.1951H-16.4352C-16.4843 -1.1951 -16.5239 -1.15525 -16.5239 -1.10602V53.8048C-16.5239 53.8541 -16.4843 53.8939 -16.4352 53.8939H-4.08131C-4.03227 53.8939 -3.99258 53.8541 -3.99258 53.8048L-3.99491 -1.10602ZM172.521 10.8049C172.521 10.7487 172.568 10.7018 172.624 10.7018H182.869C182.925 10.7018 182.972 10.6549 182.972 10.5986V-1.09196C182.972 -1.14822 182.925 -1.1951 182.869 -1.1951H159.896C159.84 -1.1951 159.793 -1.14822 159.793 -1.09196V55.2559C159.793 55.3122 159.84 55.3591 159.896 55.3591L172.418 55.3614C172.474 55.3614 172.521 55.3145 172.521 55.2583V10.8049ZM208.611 43.8349C208.611 37.7399 203.691 32.8007 197.619 32.8007C191.547 32.8007 186.626 37.7399 186.626 43.8349C186.626 49.9299 191.547 54.8691 197.619 54.8691C203.691 54.8691 208.611 49.9299 208.611 43.8349ZM210.036 32.8827V54.7683C210.036 54.7988 210.059 54.8222 210.089 54.8222H210.138C216.143 54.8222 221.012 49.9345 221.012 43.9052V43.7458C221.012 37.7165 216.143 32.8288 210.138 32.8288H210.089C210.059 32.8288 210.036 32.8523 210.036 32.8827Z" fill="white"/>
<path d="M6.70584 20.7299C6.70584 20.7101 6.72156 20.6946 6.74147 20.6946H11.478C11.4979 20.6946 11.5136 20.679 11.5136 20.6593V15.6139C11.5136 15.5941 11.4979 15.5785 11.478 15.5785H6.74042C6.72051 15.5785 6.70479 15.563 6.70479 15.5432V6.37054C6.70479 6.3508 6.72051 6.33522 6.74042 6.33522H14.9235C14.9434 6.33522 14.9591 6.31965 14.9591 6.29991V1.09976C14.9591 1.08003 14.9434 1.06445 14.9235 1.06445H1.03563C1.01572 1.06445 1 1.08003 1 1.09976V34.2376C1 34.2573 1.01572 34.2729 1.03563 34.2729H6.66916C6.68907 34.2729 6.70479 34.2573 6.70479 34.2376L6.70584 20.7299Z" stroke="#8C989D" stroke-width="2"/>
<path d="M75.8927 11.2445C75.8927 11.2954 75.8738 11.3037 75.8361 11.2705C73.0225 8.79556 69.2207 8.18903 65.6075 8.84334C65.0553 8.94304 64.393 9.14141 63.956 9.29823C61.2262 10.2735 59.0979 11.9944 57.5722 14.4589C56.0821 16.8663 55.4439 19.8045 55.6388 22.6086C56.1564 30.0417 62.7562 35.0674 70.125 34.1015C71.4464 33.9291 72.7259 33.5105 73.9079 32.9238C73.9383 32.9092 73.9572 32.8791 73.9572 32.8469V27.1275C73.9572 27.0849 73.9079 27.061 73.8744 27.087C73.5024 27.3663 73.1283 27.6291 72.75 27.8763C70.3629 29.4373 67.3041 29.5411 64.8813 28.0559C62.3045 26.4752 60.8594 23.6119 61.1853 20.5948C61.4358 18.2643 62.6796 16.1165 64.6791 14.838C66.1514 13.896 67.807 13.5377 69.6482 13.762C73.8063 14.2678 76.2196 17.6068 76.2207 21.6126C76.2217 26.9727 76.2228 30.9671 76.2217 33.5947C76.2217 33.6103 76.2353 33.6238 76.2511 33.6238H81.3659C81.3994 33.6238 81.4267 33.5967 81.4267 33.5625V1.42375C81.4267 1.39156 81.4109 1.37598 81.3785 1.37598H75.9535C75.9147 1.37598 75.8948 1.39571 75.8948 1.43414L75.8927 11.2445Z" stroke="#8C989D" stroke-width="2"/>
<path d="M88.9998 23.8786C88.9966 23.8703 89.0029 23.8609 89.0124 23.8609H108.155C108.186 23.8609 108.211 23.8391 108.216 23.809C108.362 22.8431 108.423 21.8814 108.401 20.9238C108.323 17.5277 107.007 14.4556 104.563 12.0907C102.416 10.0126 99.4642 8.78911 96.5216 8.61152C93.1966 8.40899 90.2468 9.40914 87.6721 11.612C84.7401 14.1191 83.2395 17.8818 83.2615 21.7453C83.2898 26.529 86.4167 31.1206 90.7582 33.1074C95.9851 35.4992 102.051 33.9164 105.611 29.4526C106.589 28.2261 107.338 26.8229 107.861 25.2433C107.866 25.2277 107.854 25.2111 107.837 25.2111H102.394C102.355 25.2111 102.325 25.2277 102.305 25.2599C102.038 25.694 101.783 26.1468 101.461 26.528C100.06 28.1866 98.2371 29.0455 95.9925 29.1037C92.6947 29.1888 90.0267 26.8645 88.9998 23.8786Z" stroke="#8C989D" stroke-width="2"/>
<path d="M42.5421 13.7383C44.6012 13.7238 46.3932 14.3822 47.2451 16.3784C47.8204 17.7244 47.92 19.2594 47.92 20.757C47.92 24.8739 47.9189 29.1508 47.9168 33.5886C47.9168 33.6125 47.9283 33.6239 47.9524 33.6239H53.3816C53.4225 33.6239 53.4424 33.6042 53.4424 33.5647C53.4435 29.479 53.4424 25.3787 53.4414 21.2649C53.4414 20.0861 53.4372 19.3933 53.4277 19.1887C53.3324 16.9828 52.8724 14.7603 51.728 12.9313C49.1429 8.80195 43.7724 7.84023 39.3691 9.2018C39.3209 9.21738 39.2968 9.24958 39.2968 9.29943V14.511C39.2968 14.5567 39.346 14.5847 39.3858 14.5629C40.3803 14.0218 41.4324 13.7466 42.5421 13.7383Z" stroke="#8C989D" stroke-width="2"/>
<path d="M20.7593 33.3367C23.356 34.4313 26.397 34.4916 29.0482 33.6431C29.0901 33.6306 29.1184 33.5922 29.1184 33.5485L29.1195 28.3214C29.1195 28.2809 29.0754 28.256 29.0398 28.2757C27.6178 29.0692 26.0439 29.3018 24.3169 28.9726C21.1009 28.3598 20.4983 25.2399 20.4994 22.5178C20.4994 18.2742 20.4994 13.8509 20.4994 9.24692C20.4994 9.2303 20.4858 9.2168 20.4701 9.2168H15.0241C14.9801 9.2168 14.9581 9.23861 14.9581 9.28223C14.957 13.7273 14.957 18.108 14.957 22.4233C14.957 22.9997 14.9874 23.6956 15.0492 24.5088C15.1614 25.9804 15.4946 27.3649 16.051 28.6631C16.9879 30.8503 18.5576 32.4082 20.7593 33.3367Z" stroke="#8C989D" stroke-width="2"/>
<path d="M37.0196 9.25626C37.0196 9.23445 37.0018 9.2168 36.9798 9.2168H31.4374C31.4154 9.2168 31.3976 9.23445 31.3976 9.25626V33.5839C31.3976 33.6057 31.4154 33.6233 31.4374 33.6233H36.9808C37.0028 33.6233 37.0206 33.6057 37.0206 33.5839L37.0196 9.25626Z" stroke="#8C989D" stroke-width="2"/>
<path d="M116.225 14.5333C116.225 14.5083 116.246 14.4876 116.272 14.4876H120.869C120.894 14.4876 120.915 14.4668 120.915 14.4419V9.26249C120.915 9.23757 120.894 9.2168 120.869 9.2168H110.561C110.535 9.2168 110.514 9.23757 110.514 9.26249V34.2267C110.514 34.2517 110.535 34.2724 110.561 34.2724L116.179 34.2735C116.205 34.2735 116.225 34.2527 116.225 34.2278V14.5333Z" stroke="#8C989D" stroke-width="2"/>
<path d="M132.42 29.1669C132.42 26.4666 130.212 24.2783 127.487 24.2783C124.763 24.2783 122.555 26.4666 122.555 29.1669C122.555 31.8672 124.763 34.0555 127.487 34.0555C130.212 34.0555 132.42 31.8672 132.42 29.1669Z" stroke="#F5BE82" stroke-width="2"/>
<path d="M133.059 24.3149V34.011C133.059 34.0245 133.069 34.0349 133.083 34.0349H133.105C135.799 34.0349 137.984 31.8695 137.984 29.1983V29.1277C137.984 26.4564 135.799 24.291 133.105 24.291H133.083C133.069 24.291 133.059 24.3014 133.059 24.3149Z" stroke="#F5BE82" stroke-width="2"/>
<path d="M98.5411 14.2406C96.7083 13.5064 94.9017 13.5095 93.1213 14.251C90.9375 15.1618 89.3342 17.0157 88.8773 19.3411C88.871 19.3691 88.893 19.3951 88.9224 19.3951H102.735C102.766 19.3951 102.779 19.3795 102.773 19.3494C102.465 17.7448 101.641 16.4351 100.404 15.3716C99.8478 14.8929 99.2264 14.5159 98.5411 14.2406Z" stroke="#8C989D" stroke-width="2"/>
<path d="M6.70584 20.7299L6.70479 34.2376C6.70479 34.2573 6.68907 34.2729 6.66916 34.2729H1.03563C1.01572 34.2729 1 34.2573 1 34.2376V1.09976C1 1.08003 1.01572 1.06445 1.03563 1.06445H14.9235C14.9434 1.06445 14.9591 1.08003 14.9591 1.09976V6.29991C14.9591 6.31965 14.9434 6.33522 14.9235 6.33522H6.74042C6.72051 6.33522 6.70479 6.3508 6.70479 6.37054V15.5432C6.70479 15.563 6.72051 15.5785 6.74042 15.5785H11.478C11.4979 15.5785 11.5136 15.5941 11.5136 15.6139V20.6593C11.5136 20.679 11.4979 20.6946 11.478 20.6946H6.74147C6.72156 20.6946 6.70584 20.7101 6.70584 20.7299Z" fill="#18303A"/>
<path d="M75.8927 11.2445L75.8948 1.43414C75.8948 1.39571 75.9147 1.37598 75.9535 1.37598H81.3785C81.4109 1.37598 81.4267 1.39156 81.4267 1.42375V33.5625C81.4267 33.5967 81.3994 33.6238 81.3659 33.6238H76.2511C76.2353 33.6238 76.2217 33.6103 76.2217 33.5947C76.2228 30.9671 76.2217 26.9727 76.2207 21.6126C76.2196 17.6068 73.8063 14.2678 69.6482 13.762C67.807 13.5377 66.1514 13.896 64.6791 14.838C62.6796 16.1165 61.4358 18.2643 61.1853 20.5948C60.8594 23.6119 62.3045 26.4752 64.8813 28.0559C67.3041 29.5411 70.3629 29.4373 72.75 27.8763C73.1283 27.6291 73.5024 27.3663 73.8744 27.087C73.9079 27.061 73.9572 27.0849 73.9572 27.1275V32.8469C73.9572 32.8791 73.9383 32.9092 73.9079 32.9238C72.7259 33.5105 71.4464 33.9291 70.125 34.1015C62.7562 35.0674 56.1564 30.0417 55.6388 22.6086C55.4439 19.8045 56.0821 16.8663 57.5722 14.4589C59.0979 11.9944 61.2262 10.2735 63.956 9.29823C64.393 9.14141 65.0553 8.94304 65.6075 8.84334C69.2207 8.18903 73.0225 8.79556 75.8361 11.2705C75.8738 11.3037 75.8927 11.2954 75.8927 11.2445Z" fill="#18303A"/>
<path d="M88.9998 23.8786C90.0267 26.8645 92.6947 29.1888 95.9925 29.1037C98.2371 29.0455 100.06 28.1866 101.461 26.528C101.783 26.1468 102.038 25.694 102.305 25.2599C102.325 25.2277 102.355 25.2111 102.394 25.2111H107.837C107.854 25.2111 107.866 25.2277 107.861 25.2433C107.338 26.8229 106.589 28.2261 105.611 29.4526C102.051 33.9164 95.9851 35.4992 90.7582 33.1074C86.4167 31.1206 83.2898 26.529 83.2615 21.7453C83.2395 17.8818 84.7401 14.1191 87.6721 11.612C90.2468 9.40914 93.1966 8.40899 96.5216 8.61152C99.4642 8.78911 102.416 10.0126 104.563 12.0907C107.007 14.4556 108.323 17.5277 108.401 20.9238C108.423 21.8814 108.362 22.8431 108.216 23.809C108.211 23.8391 108.186 23.8609 108.155 23.8609H89.0124C89.0029 23.8609 88.9966 23.8703 88.9998 23.8786ZM98.541 14.2406C96.7082 13.5063 94.9016 13.5094 93.1212 14.251C90.9374 15.1618 89.3341 17.0157 88.8772 19.341C88.8709 19.3691 88.8929 19.395 88.9222 19.395H102.735C102.766 19.395 102.779 19.3795 102.772 19.3493C102.465 17.7447 101.641 16.4351 100.404 15.3716C99.8477 14.8928 99.2263 14.5158 98.541 14.2406Z" fill="#18303A"/>
<path d="M47.2451 16.3784C46.3932 14.3822 44.6012 13.7238 42.5421 13.7383C41.4324 13.7466 40.3803 14.0218 39.3858 14.5629C39.346 14.5847 39.2968 14.5567 39.2968 14.511V9.29943C39.2968 9.24958 39.3209 9.21738 39.3691 9.2018C43.7724 7.84023 49.1429 8.80195 51.728 12.9313C52.8724 14.7603 53.3324 16.9828 53.4277 19.1887C53.4372 19.3933 53.4414 20.0861 53.4414 21.2649C53.4424 25.3787 53.4435 29.479 53.4424 33.5647C53.4424 33.6042 53.4225 33.6239 53.3816 33.6239H47.9524C47.9283 33.6239 47.9168 33.6125 47.9168 33.5886C47.9189 29.1508 47.92 24.8739 47.92 20.757C47.92 19.2594 47.8204 17.7244 47.2451 16.3784Z" fill="#18303A"/>
<path d="M20.7593 33.3367C18.5576 32.4082 16.9879 30.8503 16.051 28.6631C15.4946 27.3649 15.1614 25.9804 15.0492 24.5088C14.9874 23.6956 14.957 22.9997 14.957 22.4233C14.957 18.108 14.957 13.7273 14.9581 9.28223C14.9581 9.23861 14.9801 9.2168 15.0241 9.2168H20.4701C20.4858 9.2168 20.4994 9.2303 20.4994 9.24692C20.4994 13.8509 20.4994 18.2742 20.4994 22.5178C20.4983 25.2399 21.1009 28.3598 24.3169 28.9726C26.0439 29.3018 27.6178 29.0692 29.0398 28.2757C29.0754 28.256 29.1195 28.2809 29.1195 28.3214L29.1184 33.5485C29.1184 33.5922 29.0901 33.6306 29.0482 33.6431C26.397 34.4916 23.356 34.4313 20.7593 33.3367Z" fill="#18303A"/>
<path d="M37.0196 9.25626L37.0206 33.5839C37.0206 33.6057 37.0028 33.6233 36.9808 33.6233H31.4374C31.4154 33.6233 31.3976 33.6057 31.3976 33.5839V9.25626C31.3976 9.23445 31.4154 9.2168 31.4374 9.2168H36.9798C37.0018 9.2168 37.0196 9.23445 37.0196 9.25626Z" fill="#18303A"/>
<path d="M116.225 14.5333V34.2278C116.225 34.2527 116.205 34.2735 116.179 34.2735L110.561 34.2724C110.535 34.2724 110.514 34.2517 110.514 34.2267V9.26249C110.514 9.23757 110.535 9.2168 110.561 9.2168H120.869C120.894 9.2168 120.915 9.23757 120.915 9.26249V14.4419C120.915 14.4668 120.894 14.4876 120.869 14.4876H116.272C116.246 14.4876 116.225 14.5083 116.225 14.5333Z" fill="#18303A"/>
<path d="M127.487 34.0555C130.211 34.0555 132.42 31.8668 132.42 29.1669C132.42 26.467 130.211 24.2783 127.487 24.2783C124.763 24.2783 122.555 26.467 122.555 29.1669C122.555 31.8668 124.763 34.0555 127.487 34.0555Z" fill="#EB7D04"/>
<path d="M133.059 24.3149C133.059 24.3014 133.069 24.291 133.083 24.291H133.105C135.799 24.291 137.984 26.4564 137.984 29.1277V29.1983C137.984 31.8695 135.799 34.0349 133.105 34.0349H133.083C133.069 34.0349 133.059 34.0245 133.059 34.011V24.3149Z" fill="#EB7D04"/>
<path d="M71.6648 14.2406C72.3502 14.5159 72.9716 14.8929 73.528 15.3716C74.7646 16.4351 75.5893 17.7448 75.8963 19.3494C75.9026 19.3795 75.89 19.3951 75.8586 19.3951H62.0461C62.0168 19.3951 61.9948 19.3691 62.0011 19.3411C62.458 17.0157 64.0613 15.1618 66.2451 14.251C68.0255 13.5095 69.8321 13.5064 71.6648 14.2406Z" fill="white"/>
</g>
<defs>
<clipPath id="clip0_169_1773">
<rect width="140" height="35" fill="white"/>
</clipPath>
</defs>
</svg>
