<svg width="17" height="22" viewBox="0 0 17 22" fill="none" xmlns="http://www.w3.org/2000/svg">
<path d="M6.18024 0C5.60426 0 5.13732 0.476599 5.13732 1.0645C5.13732 1.65241 5.60426 2.129 6.18024 2.129V0ZM10.8198 2.129C11.3958 2.129 11.8627 1.65241 11.8627 1.0645C11.8627 0.476599 11.3958 0 10.8198 0V2.129ZM5.7884 18.5734C6.36438 18.5734 6.83125 18.0968 6.83125 17.5089C6.83125 16.921 6.36438 16.4444 5.7884 16.4444V18.5734ZM3.00359 17.5089L2.99219 18.5734H3.00359V17.5089ZM1.35629 16.5154L2.25886 15.9817L2.25007 15.9668L1.35629 16.5154ZM1.53797 10.6393L0.495048 10.6311V10.6393H1.53797ZM8.49992 3.45894L8.49255 4.52352L8.50743 4.52341L8.49992 3.45894ZM15.462 10.6408H16.505V10.6327L15.462 10.6408ZM15.6436 16.514L14.7508 15.9637L14.7412 15.9804L15.6436 16.514ZM13.9964 17.5075V18.5722L14.0078 18.572L13.9964 17.5075ZM11.2117 16.443C10.6355 16.443 10.1687 16.9196 10.1687 17.5075C10.1687 18.0954 10.6355 18.572 11.2117 18.572V16.443ZM6.83139 17.5075C6.83139 16.9195 6.36441 16.443 5.78843 16.443C5.21243 16.443 4.7455 16.9195 4.7455 17.5075H6.83139ZM5.78843 18.193H4.74534L4.74566 18.2114L5.78843 18.193ZM8.50006 20.9352L8.51814 19.8708C8.50604 19.8706 8.49394 19.8706 8.48184 19.8708L8.50006 20.9352ZM11.2117 18.1945L12.2546 18.2132V18.1945H11.2117ZM12.2546 17.5089C12.2546 16.9209 11.7876 16.4444 11.2117 16.4444C10.6357 16.4444 10.1687 16.9209 10.1687 17.5089H12.2546ZM5.7884 16.4444C5.2124 16.4444 4.7455 16.921 4.7455 17.5091C4.7455 18.097 5.2124 18.5734 5.7884 18.5734V16.4444ZM11.2117 18.5736C11.7876 18.5736 12.2546 18.0968 12.2546 17.5089C12.2546 16.9209 11.7876 16.4444 11.2117 16.4444V18.5736ZM6.18024 2.129H10.8198V0H6.18024V2.129ZM5.7884 16.4444H3.00359V18.5734H5.7884V16.4444ZM3.01499 16.4446C2.71441 16.4412 2.42459 16.2737 2.25886 15.9817L0.45386 17.0489C0.979853 17.9757 1.93859 18.5616 2.99219 18.5734L3.01499 16.4446ZM2.25007 15.9668C2.06151 15.6468 2.03507 15.2133 2.17336 14.4466C2.24948 14.0246 2.32336 13.7386 2.4201 13.2431C2.50375 12.8146 2.58089 12.3293 2.58089 11.8316H0.495048C0.495048 12.1187 0.44966 12.4419 0.374486 12.8271C0.312384 13.1452 0.191114 13.6779 0.121989 14.0612C-0.0301941 14.905 -0.147488 16.0286 0.462523 17.064L2.25007 15.9668ZM2.58089 11.8316V10.6393H0.495048V11.8316H2.58089ZM2.58086 10.6477C2.60714 7.21525 5.2773 4.50032 8.49255 4.52352L8.50743 2.39446C4.0913 2.36258 0.529938 6.07452 0.495048 10.6311L2.58086 10.6477ZM8.50743 4.52341C11.7231 4.5002 14.3935 7.21597 14.4191 10.6489L16.505 10.6327C16.4709 6.07551 12.9092 2.3626 8.49255 2.39446L8.50743 4.52341ZM14.4191 10.6408V11.8302H16.505V10.6408H14.4191ZM14.4191 11.8302C14.4191 12.3291 14.4962 12.8152 14.5799 13.2445C14.6768 13.7422 14.7502 14.026 14.8266 14.4494C14.9651 15.2171 14.9378 15.6475 14.7508 15.9637L16.5364 17.0642C17.148 16.0307 17.03 14.9069 16.878 14.0641C16.8091 13.6821 16.6874 13.1466 16.6255 12.8292C16.5504 12.4435 16.505 12.119 16.505 11.8302H14.4191ZM14.7412 15.9804C14.5756 16.2724 14.2856 16.4397 13.985 16.4431L14.0078 18.572C15.0614 18.5602 16.0201 17.9743 16.5461 17.0475L14.7412 15.9804ZM13.9964 16.443H11.2117V18.572L13.9964 18.5722V16.443ZM4.7455 17.5075L4.74534 18.193H6.83139V17.5075H4.7455ZM4.74566 18.2114C4.78112 20.3145 6.44553 22.0362 8.51814 21.9994L8.48184 19.8708C7.61066 19.8863 6.84766 19.1532 6.83125 18.1747L4.74566 18.2114ZM8.48184 21.9994C10.5538 22.0362 12.2181 20.3157 12.2546 18.2132L10.1689 18.1756C10.1519 19.1538 9.38904 19.8863 8.51814 19.8708L8.48184 21.9994ZM12.2546 18.1945V17.5089H10.1687V18.1945H12.2546ZM5.7884 18.5734L11.2117 18.5736V16.4444H5.7884V18.5734Z" fill="#04363D"/>
</svg>
