<svg width="26" height="27" viewBox="0 0 26 27" fill="none" xmlns="http://www.w3.org/2000/svg">
<path d="M22.3058 2.125H3.69409V24.875H22.3058V2.125Z" stroke="#04363D" stroke-miterlimit="10"/>
<path d="M13 16.5983C15.854 16.5983 18.1675 14.2847 18.1675 11.4308C18.1675 8.57687 15.854 6.26331 13 6.26331C10.1461 6.26331 7.83252 8.57687 7.83252 11.4308C7.83252 14.2847 10.1461 16.5983 13 16.5983Z" stroke="#04363D" stroke-miterlimit="10"/>
<path d="M13.0001 16.5983C14.1428 16.5983 15.0692 14.2847 15.0692 11.4308C15.0692 8.57687 14.1428 6.26331 13.0001 6.26331C11.8573 6.26331 10.9309 8.57687 10.9309 11.4308C10.9309 14.2847 11.8573 16.5983 13.0001 16.5983Z" stroke="#04363D" stroke-miterlimit="10"/>
<path d="M7.83252 11.4308H18.1675" stroke="#04363D" stroke-miterlimit="10"/>
<path d="M7.83252 20.7367H18.1675" stroke="#04363D" stroke-miterlimit="10"/>
</svg>
