<svg width="30" height="30" viewBox="0 0 26 26" fill="none" xmlns="http://www.w3.org/2000/svg">
<path fill-rule="evenodd" clip-rule="evenodd" d="M12.675 15.1663C11.5083 15.1663 10.5625 14.1963 10.5625 12.9997C10.5625 11.803 11.5083 10.833 12.675 10.833C13.8417 10.833 14.7875 11.803 14.7875 12.9997C14.7875 13.5743 14.5649 14.1254 14.1688 14.5317C13.7726 14.9381 13.2353 15.1663 12.675 15.1663Z" stroke="#04363D" stroke-width="2" stroke-linecap="round" stroke-linejoin="round"/>
<path fill-rule="evenodd" clip-rule="evenodd" d="M18.2911 17.4019V15.9481C18.2911 15.5881 18.4305 15.2428 18.6787 14.9882L19.6811 13.9602C20.198 13.4301 20.198 12.5706 19.6811 12.0405L18.6787 11.0124C18.4305 10.7578 18.2911 10.4126 18.2911 10.0526V8.59765C18.2911 7.84797 17.6985 7.24023 16.9676 7.24023H15.5491C15.1981 7.24023 14.8614 7.09721 14.6132 6.84265L13.6108 5.81456C13.0939 5.28447 12.256 5.28447 11.7391 5.81456L10.7368 6.84265C10.4886 7.09721 10.1519 7.24023 9.80094 7.24023H8.38239C8.03119 7.24023 7.6944 7.38339 7.44617 7.63819C7.19793 7.89299 7.05863 8.23853 7.05891 8.59873V10.0526C7.0589 10.4126 6.91946 10.7578 6.67126 11.0124L5.66889 12.0405C5.15204 12.5706 5.15204 13.4301 5.66889 13.9602L6.67126 14.9882C6.91946 15.2428 7.0589 15.5881 7.05891 15.9481V17.4019C7.05891 18.1516 7.65145 18.7593 8.38239 18.7593H9.80094C10.1519 18.7593 10.4886 18.9023 10.7368 19.1569L11.7391 20.185C12.256 20.7151 13.0939 20.7151 13.6108 20.185L14.6132 19.1569C14.8614 18.9023 15.1981 18.7593 15.5491 18.7593H16.9665C17.3177 18.7597 17.6546 18.6168 17.9031 18.3621C18.1515 18.1075 18.2911 17.7621 18.2911 17.4019Z" stroke="#04363D" stroke-width="2" stroke-linecap="round" stroke-linejoin="round"/>
</svg>
