<svg width="24" height="22" viewBox="0 0 24 22" fill="none" xmlns="http://www.w3.org/2000/svg">
<path d="M13.0834 3.41667C13.0834 4.61328 10.4158 5.58333 7.12508 5.58333C3.83438 5.58333 1.16675 4.61328 1.16675 3.41667M13.0834 3.41667C13.0834 2.22005 10.4158 1.25 7.12508 1.25C3.83438 1.25 1.16675 2.22005 1.16675 3.41667M13.0834 3.41667V8.24525C11.7601 8.64265 10.9167 9.24381 10.9167 9.91667M1.16675 3.41667V16.4167C1.16675 17.6133 3.83438 18.5833 7.12508 18.5833C8.56551 18.5833 9.88661 18.3974 10.9167 18.0881V9.91667M10.9167 9.91667C10.9167 11.1133 13.5843 12.0833 16.8751 12.0833C20.1658 12.0833 22.8334 11.1133 22.8334 9.91667M10.9167 9.91667C10.9167 8.72005 13.5843 7.75 16.8751 7.75C20.1658 7.75 22.8334 8.72005 22.8334 9.91667M10.9167 9.91667V18.5833C10.9167 19.78 13.5843 20.75 16.8751 20.75C20.1658 20.75 22.8334 19.78 22.8334 18.5833V9.91667M1.16675 7.75C1.16675 8.94665 3.83438 9.91667 7.12508 9.91667C8.56551 9.91667 9.88661 9.73077 10.9167 9.42148M1.16675 12.0833C1.16675 13.28 3.83438 14.25 7.12508 14.25C8.56551 14.25 9.88661 14.0641 10.9167 13.7548M22.8334 14.25C22.8334 15.4467 20.1658 16.4167 16.8751 16.4167C13.5843 16.4167 10.9167 15.4467 10.9167 14.25" stroke="#04363D" stroke-linecap="round" stroke-linejoin="round"/>
</svg>
