<svg width="32" height="32" viewBox="0 0 32 32" fill="none" xmlns="http://www.w3.org/2000/svg">
<circle cx="16" cy="16" r="16" fill="#EC8A23" fill-opacity="0.2"/>
<path fill-rule="evenodd" clip-rule="evenodd" d="M16.4926 8.55099C15.4853 7.58593 14.1601 7 12.7084 7C9.55573 7 7 9.76329 7 13.172C7 14.7416 7.53452 16.1824 8.4271 17.2715L16.5 26L24.3339 17.5299L24.5655 17.2636C25.4581 16.1744 26 14.7416 26 13.172C26 9.76329 23.4443 7 20.2916 7C18.8399 7 17.5147 7.58593 16.5074 8.551L16.5 8.54301L16.4926 8.55099ZM16.5 10.8569L16.558 10.9123L17.4583 9.93876L17.5522 9.84884C18.2805 9.1511 19.2373 8.72727 20.2916 8.72727C22.5832 8.72727 24.4167 10.7318 24.4167 13.172C24.4167 14.2906 24.0351 15.3109 23.3994 16.0948L23.2019 16.3219L16.5 23.5681L9.57845 16.0844C8.95693 15.3091 8.58333 14.2901 8.58333 13.172C8.58333 10.7318 10.4168 8.72727 12.7084 8.72727C13.7627 8.72727 14.7195 9.1511 15.4478 9.84883L15.5417 9.9387L16.4422 10.9123L16.5 10.8569Z" fill="#EC8A23"/>
</svg>
