<svg width="40" height="40" viewBox="0 0 40 40" fill="none" xmlns="http://www.w3.org/2000/svg">
<path fill-rule="evenodd" clip-rule="evenodd" d="M19.9922 11.6326C18.9319 10.6168 17.537 10 16.0088 10C12.6902 10 10 12.9087 10 16.4968C10 18.1491 10.5627 19.6657 11.5022 20.8121L20 30L28.2462 21.0841L28.49 20.8038C29.4296 19.6572 30 18.1491 30 16.4968C30 12.9087 27.3098 10 23.9911 10C22.463 10 21.0681 10.6168 20.0078 11.6326L20 11.6242L19.9922 11.6326ZM20 14.0599L20.061 14.1182L21.0088 13.0934L21.1076 12.9988C21.8742 12.2643 22.8813 11.8182 23.9911 11.8182C26.4033 11.8182 28.3333 13.9282 28.3333 16.4968C28.3333 17.6743 27.9317 18.7484 27.2626 19.5735L27.0547 19.8125L20 27.4401L12.7142 19.5625C12.0599 18.7464 11.6667 17.6738 11.6667 16.4968C11.6667 13.9282 13.5967 11.8182 16.0088 11.8182C17.1186 11.8182 18.1258 12.2643 18.8924 12.9988L18.9912 13.0934L19.9391 14.1182L20 14.0599Z" fill="#737373"/>
</svg>
