<svg width="19" height="17" viewBox="0 0 19 17" fill="none" xmlns="http://www.w3.org/2000/svg">
<path d="M1.64083 9.55085L8.59346 16.0822C8.83296 16.3071 8.95266 16.4195 9.09386 16.4472C9.15746 16.4597 9.22286 16.4597 9.28646 16.4472C9.42766 16.4195 9.54736 16.3071 9.78686 16.0822L16.7395 9.55085C18.6957 7.71325 18.9332 4.68925 17.288 2.56872L16.9787 2.16999C15.0105 -0.366769 11.0598 0.0586613 9.67686 2.9563C9.48146 3.36561 8.89886 3.36561 8.70346 2.9563C7.32056 0.0586613 3.36988 -0.366769 1.4017 2.17L1.09235 2.56872C-0.552894 4.68925 -0.315345 7.71325 1.64083 9.55085Z" fill="#EC8A23"/>
</svg>
