<svg width="23" height="23" viewBox="0 0 23 23" fill="none" xmlns="http://www.w3.org/2000/svg">
<path d="M21.0834 21.0834H1.91675" stroke="#04363D" stroke-linecap="round"/>
<path d="M1.91675 10.5417L5.81042 7.42682M21.0834 10.5417L13.2961 4.31188C12.246 3.47189 10.7541 3.47189 9.70407 4.31188L8.95473 4.91137" stroke="#04363D" stroke-linecap="round"/>
<path d="M14.8542 5.27083V3.35417C14.8542 3.08953 15.0688 2.875 15.3334 2.875H17.7292C17.9938 2.875 18.2084 3.08953 18.2084 3.35417V8.14583" stroke="#04363D" stroke-linecap="round"/>
<path d="M3.83325 21.0833V9.10413" stroke="#04363D" stroke-linecap="round"/>
<path d="M19.1667 9.10413V12.9375M19.1667 21.0833V16.7708" stroke="#04363D" stroke-linecap="round"/>
<path d="M14.375 21.0833V16.2916C14.375 14.9364 14.375 14.2587 13.954 13.8376C13.5329 13.4166 12.8553 13.4166 11.5 13.4166C10.1447 13.4166 9.46707 13.4166 9.04603 13.8376M8.625 21.0833V16.2916" stroke="#04363D" stroke-linecap="round" stroke-linejoin="round"/>
<path d="M13.4166 9.10417C13.4166 10.1627 12.5585 11.0208 11.4999 11.0208C10.4413 11.0208 9.58325 10.1627 9.58325 9.10417C9.58325 8.04562 10.4413 7.1875 11.4999 7.1875C12.5585 7.1875 13.4166 8.04562 13.4166 9.10417Z" stroke="#04363D"/>
</svg>
