<svg width="22" height="22" viewBox="0 0 22 22" fill="none" xmlns="http://www.w3.org/2000/svg">
<path d="M20.9708 11.9579L20.6874 13.8952C20.1915 17.2827 19.9437 18.9764 18.7486 19.9882C17.5535 21 15.8008 21 12.2955 21H10.0456C6.54028 21 4.78761 21 3.5925 19.9882C2.39739 18.9764 2.14952 17.2827 1.6538 13.8952L1.37028 11.9579C0.984365 9.3208 0.791409 8.00229 1.34109 6.87495C1.89077 5.7476 3.06075 5.06234 5.40071 3.69181L6.80917 2.86687C8.93409 1.62229 9.99657 1 11.1706 1C12.3445 1 13.4071 1.62229 15.5319 2.86687L16.9404 3.69181C19.2804 5.06234 20.4504 5.7476 21 6.87495" stroke="#EC8A23" stroke-width="2" stroke-linecap="round"/>
</svg>
