<svg width="17" height="28" viewBox="0 0 17 28" fill="none" xmlns="http://www.w3.org/2000/svg">
<path d="M6.18024 6C5.60426 6 5.13732 6.4766 5.13732 7.0645C5.13732 7.65241 5.60426 8.129 6.18024 8.129V6ZM10.8198 8.129C11.3958 8.129 11.8627 7.65241 11.8627 7.0645C11.8627 6.4766 11.3958 6 10.8198 6V8.129ZM5.7884 24.5734C6.36438 24.5734 6.83125 24.0968 6.83125 23.5089C6.83125 22.921 6.36438 22.4444 5.7884 22.4444V24.5734ZM3.00359 23.5089L2.99219 24.5734H3.00359V23.5089ZM1.35629 22.5154L2.25886 21.9817L2.25007 21.9668L1.35629 22.5154ZM1.53797 16.6393L0.495048 16.6311V16.6393H1.53797ZM8.49992 9.45894L8.49255 10.5235L8.50743 10.5234L8.49992 9.45894ZM15.462 16.6408H16.505V16.6327L15.462 16.6408ZM15.6436 22.514L14.7508 21.9637L14.7412 21.9804L15.6436 22.514ZM13.9964 23.5075V24.5722L14.0078 24.572L13.9964 23.5075ZM11.2117 22.443C10.6355 22.443 10.1687 22.9196 10.1687 23.5075C10.1687 24.0954 10.6355 24.572 11.2117 24.572V22.443ZM6.83139 23.5075C6.83139 22.9195 6.36441 22.443 5.78843 22.443C5.21243 22.443 4.7455 22.9195 4.7455 23.5075H6.83139ZM5.78843 24.193H4.74534L4.74566 24.2114L5.78843 24.193ZM8.50006 26.9352L8.51814 25.8708C8.50604 25.8706 8.49394 25.8706 8.48184 25.8708L8.50006 26.9352ZM11.2117 24.1945L12.2546 24.2132V24.1945H11.2117ZM12.2546 23.5089C12.2546 22.9209 11.7876 22.4444 11.2117 22.4444C10.6357 22.4444 10.1687 22.9209 10.1687 23.5089H12.2546ZM5.7884 22.4444C5.2124 22.4444 4.7455 22.921 4.7455 23.5091C4.7455 24.097 5.2124 24.5734 5.7884 24.5734V22.4444ZM11.2117 24.5736C11.7876 24.5736 12.2546 24.0968 12.2546 23.5089C12.2546 22.9209 11.7876 22.4444 11.2117 22.4444V24.5736ZM6.18024 8.129H10.8198V6H6.18024V8.129ZM5.7884 22.4444H3.00359V24.5734H5.7884V22.4444ZM3.01499 22.4446C2.71441 22.4412 2.42459 22.2737 2.25886 21.9817L0.45386 23.0489C0.979853 23.9757 1.93859 24.5616 2.99219 24.5734L3.01499 22.4446ZM2.25007 21.9668C2.06151 21.6468 2.03507 21.2133 2.17336 20.4466C2.24948 20.0246 2.32336 19.7386 2.4201 19.2431C2.50375 18.8146 2.58089 18.3293 2.58089 17.8316H0.495048C0.495048 18.1187 0.44966 18.4419 0.374486 18.8271C0.312384 19.1452 0.191114 19.6779 0.121989 20.0612C-0.0301941 20.905 -0.147488 22.0286 0.462523 23.064L2.25007 21.9668ZM2.58089 17.8316V16.6393H0.495048V17.8316H2.58089ZM2.58086 16.6477C2.60714 13.2153 5.2773 10.5003 8.49255 10.5235L8.50743 8.39446C4.0913 8.36258 0.529938 12.0745 0.495048 16.6311L2.58086 16.6477ZM8.50743 10.5234C11.7231 10.5002 14.3935 13.216 14.4191 16.6489L16.505 16.6327C16.4709 12.0755 12.9092 8.3626 8.49255 8.39446L8.50743 10.5234ZM14.4191 16.6408V17.8302H16.505V16.6408H14.4191ZM14.4191 17.8302C14.4191 18.3291 14.4962 18.8152 14.5799 19.2445C14.6768 19.7422 14.7502 20.026 14.8266 20.4494C14.9651 21.2171 14.9378 21.6475 14.7508 21.9637L16.5364 23.0642C17.148 22.0307 17.03 20.9069 16.878 20.0641C16.8091 19.6821 16.6874 19.1466 16.6255 18.8292C16.5504 18.4435 16.505 18.119 16.505 17.8302H14.4191ZM14.7412 21.9804C14.5756 22.2724 14.2856 22.4397 13.985 22.4431L14.0078 24.572C15.0614 24.5602 16.0201 23.9743 16.5461 23.0475L14.7412 21.9804ZM13.9964 22.443H11.2117V24.572L13.9964 24.5722V22.443ZM4.7455 23.5075L4.74534 24.193H6.83139V23.5075H4.7455ZM4.74566 24.2114C4.78112 26.3145 6.44553 28.0362 8.51814 27.9994L8.48184 25.8708C7.61066 25.8863 6.84766 25.1532 6.83125 24.1747L4.74566 24.2114ZM8.48184 27.9994C10.5538 28.0362 12.2181 26.3157 12.2546 24.2132L10.1689 24.1756C10.1519 25.1538 9.38904 25.8863 8.51814 25.8708L8.48184 27.9994ZM12.2546 24.1945V23.5089H10.1687V24.1945H12.2546ZM5.7884 24.5734L11.2117 24.5736V22.4444H5.7884V24.5734Z" fill="#04363D"/>
<circle cx="13" cy="4" r="3.875" fill="#BD202C" stroke="#04363D" stroke-width="0.25"/>
</svg>
