<svg width="20" height="28" viewBox="0 0 20 28" fill="none" xmlns="http://www.w3.org/2000/svg">
<path opacity="0.4" d="M10.2162 12C10.081 11.9876 9.91888 11.9876 9.77023 12C6.55407 11.9008 4 9.48253 4 6.5062C4 3.46787 6.67569 1 9.99997 1C13.3108 1 16 3.46787 16 6.5062C15.9865 9.48253 13.4324 11.9008 10.2162 12Z" stroke="#EC8A23" stroke-width="2" stroke-linecap="round" stroke-linejoin="round"/>
<path d="M3.39516 16.9101C0.201613 19.1647 0.201613 22.8388 3.39516 25.0794C7.02419 27.6402 12.9758 27.6402 16.6048 25.0794C19.7984 22.8249 19.7984 19.1508 16.6048 16.9101C12.989 14.3633 7.03739 14.3633 3.39516 16.9101Z" stroke="#EC8A23" stroke-width="2" stroke-linecap="round" stroke-linejoin="round"/>
</svg>
