<svg width="32" height="32" viewBox="0 0 32 32" fill="none" xmlns="http://www.w3.org/2000/svg">
<circle cx="16" cy="16" r="16" fill="white" fill-opacity="0.8"/>
<path d="M13.5 16C13.5 17.1506 12.5673 18.0834 11.4167 18.0834C10.2661 18.0834 9.33337 17.1506 9.33337 16C9.33337 14.8494 10.2661 13.9167 11.4167 13.9167C12.5673 13.9167 13.5 14.8494 13.5 16Z" stroke="black"/>
<path d="M17.6667 11.4167L13.5 14.3334" stroke="black" stroke-linecap="round"/>
<path d="M17.6667 20.5834L13.5 17.6667" stroke="black" stroke-linecap="round"/>
<path d="M21.8333 21.4166C21.8333 22.5672 20.9005 23.5 19.75 23.5C18.5994 23.5 17.6666 22.5672 17.6666 21.4166C17.6666 20.2661 18.5994 19.3333 19.75 19.3333C20.9005 19.3333 21.8333 20.2661 21.8333 21.4166Z" stroke="black"/>
<path d="M21.8333 10.5833C21.8333 11.7339 20.9005 12.6667 19.75 12.6667C18.5994 12.6667 17.6666 11.7339 17.6666 10.5833C17.6666 9.43274 18.5994 8.5 19.75 8.5C20.9005 8.5 21.8333 9.43274 21.8333 10.5833Z" stroke="black"/>
</svg>
