<svg width="23" height="20" viewBox="0 0 23 20" fill="none" xmlns="http://www.w3.org/2000/svg">
<path d="M16.5634 12.419H16.5735M19.375 1.0011H4.975C3.71489 1.0011 3.08482 1.0011 2.60352 1.24633C2.18015 1.46204 1.83595 1.80625 1.62024 2.22962C1.375 2.71092 1.375 3.34098 1.375 4.6011V15.4011C1.375 16.6612 1.375 17.2912 1.62024 17.7726C1.83595 18.196 2.18015 18.5401 2.60352 18.7559C3.08482 19.0011 3.71488 19.0011 4.975 19.0011H18.025C19.2851 19.0011 19.9152 19.0011 20.3965 18.7559C20.8198 18.5401 21.1641 18.196 21.3797 17.7726C21.625 17.2912 21.625 16.6612 21.625 15.4011V9.10112C21.625 7.84101 21.625 7.21092 21.3797 6.72962C21.1641 6.30625 20.8198 5.96204 20.3965 5.74633C19.9152 5.5011 19.2851 5.5011 18.025 5.5011H5.875M17.0696 12.419C17.0696 12.6985 16.843 12.9252 16.5634 12.9252C16.2838 12.9252 16.0572 12.6985 16.0572 12.419C16.0572 12.1394 16.2838 11.9127 16.5634 11.9127C16.843 11.9127 17.0696 12.1394 17.0696 12.419Z" stroke="#737373" stroke-width="2" stroke-linecap="round" stroke-linejoin="round"/>
</svg>
